<svg xmlns="http://www.w3.org/2000/svg" width="12.849" height="10.695" viewBox="0 0 12.849 10.695">
  <g id="Icon_feather-camera" data-name="Icon feather-camera" transform="translate(0.5 0.5)">
    <path id="Path_96" data-name="Path 96" d="M13.349,13.117a1.077,1.077,0,0,1-1.077,1.077H2.577A1.077,1.077,0,0,1,1.5,13.117V7.193A1.077,1.077,0,0,1,2.577,6.116H4.732L5.809,4.5H9.04l1.077,1.616h2.154a1.077,1.077,0,0,1,1.077,1.077Z" transform="translate(-1.5 -4.5)" fill="none" stroke="#fff" stroke-linecap="round" stroke-linejoin="round" stroke-width="1"/>
    <path id="Path_97" data-name="Path 97" d="M16.309,15.654A2.154,2.154,0,1,1,14.154,13.5,2.154,2.154,0,0,1,16.309,15.654Z" transform="translate(-8.23 -10.268)" fill="none" stroke="#fff" stroke-linecap="round" stroke-linejoin="round" stroke-width="1"/>
  </g>
</svg>
