<svg id="Component_41_11" data-name="Component 41 – 11" xmlns="http://www.w3.org/2000/svg" width="54" height="54" viewBox="0 0 54 54">
  <circle id="Ellipse_92" data-name="Ellipse 92" cx="27" cy="27" r="27" fill="#deeafb"/>
  <g id="Group_344" data-name="Group 344" transform="translate(8.579 16.77)">
    <g id="Group_316" data-name="Group 316" transform="translate(10.332 0)">
      <g id="Path_83" data-name="Path 83" transform="translate(0 7.468)" fill="none">
        <path d="M7.556,0h.869a7.321,7.321,0,0,1,7.556,7.062v3.975c0,.975-.623,2.083-1.889,1.765a53.619,53.619,0,0,0-6.015-.483,34.6,34.6,0,0,0-6.188.483A1.649,1.649,0,0,1,0,11.037V7.062A7.321,7.321,0,0,1,7.556,0Z" stroke="none"/>
        <path d="M 7.555863380432129 2.000002861022949 C 4.492353439331055 2.000002861022949 2.000003814697266 4.270732879638672 2.000003814697266 7.061832904815674 L 2.000003814697266 10.75605487823486 C 2.931981086730957 10.60957336425781 5.112985610961914 10.31380271911621 7.528313636779785 10.31380271911621 C 7.726543426513672 10.31380271911621 7.924953460693359 10.31583309173584 8.118023872375488 10.31984329223633 C 10.73579597473145 10.37416934967041 13.06787109375 10.64819526672363 13.98092365264893 10.7681827545166 L 13.98092365264893 7.061832904815674 C 13.98092365264893 4.270732879638672 11.48857307434082 2.000002861022949 8.425064086914062 2.000002861022949 L 7.555863380432129 2.000002861022949 M 7.555863380432129 2.86102294921875e-06 L 8.425064086914062 2.86102294921875e-06 C 12.59805393218994 2.86102294921875e-06 15.98092365264893 3.16169261932373 15.98092365264893 7.061832904815674 L 15.98092365264893 11.03686332702637 C 15.98092365264893 12.01189231872559 15.35783386230469 13.11996269226074 14.09196376800537 12.80232238769531 C 14.09196376800537 12.80232238769531 11.28890419006348 12.38608264923096 8.076523780822754 12.31941318511963 C 4.864139556884766 12.25275230407715 1.88896369934082 12.80232238769531 1.88896369934082 12.80232238769531 C 0.7595577239990234 13.05330276489258 3.814697265625e-06 12.0118932723999 3.814697265625e-06 11.03686332702637 L 3.814697265625e-06 7.061832904815674 C 3.814697265625e-06 3.16169261932373 3.38287353515625 2.86102294921875e-06 7.555863380432129 2.86102294921875e-06 Z" stroke="none" fill="#084dd1"/>
      </g>
      <g id="Ellipse_91" data-name="Ellipse 91" transform="translate(3.723 0)" fill="none" stroke="#084dd1" stroke-width="2">
        <ellipse cx="4.267" cy="4.267" rx="4.267" ry="4.267" stroke="none"/>
        <ellipse cx="4.267" cy="4.267" rx="3.267" ry="3.267" fill="none"/>
      </g>
    </g>
    <g id="Group_342" data-name="Group 342" transform="translate(24.438 2.4)">
      <g id="Path_83-2" data-name="Path 83" transform="translate(0 5.705)" fill="none">
        <path d="M5.772,0h.664a5.593,5.593,0,0,1,5.772,5.395V8.431c0,.745-.476,1.591-1.443,1.349a40.96,40.96,0,0,0-4.6-.369,26.432,26.432,0,0,0-4.727.369A1.26,1.26,0,0,1,0,8.431V5.395A5.593,5.593,0,0,1,5.772,0Z" stroke="none"/>
        <path d="M 5.772027015686035 2.000002861022949 C 3.692127227783203 2.000002861022949 1.999997138977051 3.522822856903076 1.999997138977051 5.394632816314697 L 1.999997138977051 7.670862197875977 C 2.866728782653809 7.553570747375488 4.251457691192627 7.406692981719971 5.750996589660645 7.406692981719971 C 5.905826568603516 7.406692981719971 6.060686588287354 7.408272743225098 6.211266994476318 7.411402702331543 C 7.836607933044434 7.445133209228516 9.32084846496582 7.588650703430176 10.20805644989014 7.691938400268555 L 10.20805644989014 5.394632816314697 C 10.20805644989014 3.522822856903076 8.515926361083984 2.000002861022949 6.436026573181152 2.000002861022949 L 5.772027015686035 2.000002861022949 M 5.772027015686035 2.86102294921875e-06 L 6.436026573181152 2.86102294921875e-06 C 9.62382698059082 2.86102294921875e-06 12.20805644989014 2.415262699127197 12.20805644989014 5.394632816314697 L 12.20805644989014 8.43121337890625 C 12.20805644989014 9.176053047180176 11.7320671081543 10.02252292633057 10.76504707336426 9.779872894287109 C 10.76504707336426 9.779872894287109 8.623756408691406 9.461902618408203 6.169766902923584 9.410972595214844 C 3.715780258178711 9.360053062438965 1.44300651550293 9.779872894287109 1.44300651550293 9.779872894287109 C 0.5802392959594727 9.971602439880371 -2.86102294921875e-06 9.176053047180176 -2.86102294921875e-06 8.43121337890625 L -2.86102294921875e-06 5.394632816314697 C -2.86102294921875e-06 2.415262699127197 2.584226608276367 2.86102294921875e-06 5.772027015686035 2.86102294921875e-06 Z" stroke="none" fill="#084dd1"/>
      </g>
      <g id="Ellipse_91-2" data-name="Ellipse 91" transform="translate(2.844 0)" fill="none" stroke="#084dd1" stroke-width="2">
        <ellipse cx="3.26" cy="3.26" rx="3.26" ry="3.26" stroke="none"/>
        <ellipse cx="3.26" cy="3.26" rx="2.26" ry="2.26" fill="none"/>
      </g>
    </g>
    <g id="Group_343" data-name="Group 343" transform="translate(0 2.4)">
      <g id="Path_83-3" data-name="Path 83" transform="translate(0 5.705)" fill="none">
        <path d="M5.772,0h.664a5.593,5.593,0,0,1,5.772,5.395V8.431c0,.745-.476,1.591-1.443,1.349a40.96,40.96,0,0,0-4.6-.369,26.432,26.432,0,0,0-4.727.369A1.26,1.26,0,0,1,0,8.431V5.395A5.593,5.593,0,0,1,5.772,0Z" stroke="none"/>
        <path d="M 5.772027015686035 2.000002861022949 C 3.692127227783203 2.000002861022949 1.999997138977051 3.522822856903076 1.999997138977051 5.394632816314697 L 1.999997138977051 7.670862197875977 C 2.866728782653809 7.553570747375488 4.251457691192627 7.406692981719971 5.750996589660645 7.406692981719971 C 5.905826568603516 7.406692981719971 6.060686588287354 7.408272743225098 6.211266994476318 7.411402702331543 C 7.836607933044434 7.445133209228516 9.32084846496582 7.588650703430176 10.20805644989014 7.691938400268555 L 10.20805644989014 5.394632816314697 C 10.20805644989014 3.522822856903076 8.515926361083984 2.000002861022949 6.436026573181152 2.000002861022949 L 5.772027015686035 2.000002861022949 M 5.772027015686035 2.86102294921875e-06 L 6.436026573181152 2.86102294921875e-06 C 9.62382698059082 2.86102294921875e-06 12.20805644989014 2.415262699127197 12.20805644989014 5.394632816314697 L 12.20805644989014 8.43121337890625 C 12.20805644989014 9.176053047180176 11.7320671081543 10.02252292633057 10.76504707336426 9.779872894287109 C 10.76504707336426 9.779872894287109 8.623756408691406 9.461902618408203 6.169766902923584 9.410972595214844 C 3.715780258178711 9.360053062438965 1.44300651550293 9.779872894287109 1.44300651550293 9.779872894287109 C 0.5802392959594727 9.971602439880371 -2.86102294921875e-06 9.176053047180176 -2.86102294921875e-06 8.43121337890625 L -2.86102294921875e-06 5.394632816314697 C -2.86102294921875e-06 2.415262699127197 2.584226608276367 2.86102294921875e-06 5.772027015686035 2.86102294921875e-06 Z" stroke="none" fill="#084dd1"/>
      </g>
      <g id="Ellipse_91-3" data-name="Ellipse 91" transform="translate(2.844 0)" fill="none" stroke="#084dd1" stroke-width="2">
        <ellipse cx="3.26" cy="3.26" rx="3.26" ry="3.26" stroke="none"/>
        <ellipse cx="3.26" cy="3.26" rx="2.26" ry="2.26" fill="none"/>
      </g>
    </g>
  </g>
</svg>
