<svg xmlns="http://www.w3.org/2000/svg" width="8" height="8" viewBox="0 0 8 8">
  <g id="Group_595" data-name="Group 595" transform="translate(0 0)">
    <rect id="Rectangle_672" data-name="Rectangle 672" width="8" height="8" rx="2" transform="translate(0 0)" fill="#084dd1"/>
    <g id="Group_615" data-name="Group 615" transform="translate(1.265 1.07)">
      <path id="Union_70" data-name="Union 70" d="M1.1,3.778.768,3.259a.109.109,0,0,1,0-.12.217.217,0,0,0,.014-.165A1.6,1.6,0,0,1,0,1.571,1.5,1.5,0,0,1,1.423,0,1.5,1.5,0,0,1,2.845,1.571a1.6,1.6,0,0,1-.782,1.4.269.269,0,0,0,.026.165c.038.038,0,.1,0,.1s.058-.034-.322.538c-.126.19-.243.254-.342.254C1.228,4.032,1.1,3.778,1.1,3.778Z" transform="translate(1.166)" fill="#fff"/>
      <path id="Subtraction_17" data-name="Subtraction 17" d="M4.77,2.2H.408A.408.408,0,0,1,0,1.789,1.784,1.784,0,0,1,1.722,0l.312.487s.221.431.554.431c.195,0,.39-.145.58-.431C3.292.3,3.4.136,3.483,0A1.789,1.789,0,0,1,5.178,1.789.408.408,0,0,1,4.77,2.2Z" transform="translate(0 3.372)" fill="#fff"/>
    </g>
  </g>
</svg>
