<svg id="Group_596" data-name="Group 596" xmlns="http://www.w3.org/2000/svg" width="7.708" height="7.672" viewBox="0 0 7.708 7.672">
  <rect id="Rectangle_673" data-name="Rectangle 673" width="6.423" height="5.78" transform="translate(1.038 1.058)" fill="#fff"/>
  <path id="Path_139" data-name="Path 139" d="M2993.72,167.672h-5.212a1.246,1.246,0,0,1-1.248-1.243v-5.187a1.246,1.246,0,0,1,1.248-1.243h5.212a1.246,1.246,0,0,1,1.248,1.243v5.187A1.246,1.246,0,0,1,2993.72,167.672Zm-3.855-1.33h0v-3.309h-1.032v3.309Zm-.515-3.761a.6.6,0,1,0-.6-.6A.6.6,0,0,0,2989.349,162.581Zm4.377,3.761v-1.814c0-.891-.2-1.577-1.237-1.577a1.083,1.083,0,0,0-.975.534h-.014v-.452h-.989v3.309h1.031v-1.638c0-.432.082-.85.619-.85s.535.494.535.878v1.61Z" transform="translate(-2987.26 -160)" fill="#084dd1"/>
</svg>
